<svg xmlns="http://www.w3.org/2000/svg"  viewBox="0 0 100 100" width="100px" height="100px"><path fill="#f15b6c" d="M70.011,18.988h-39c-6.6,0-12,5.4-12,12v39c0,6.6,5.4,12,12,12h39c6.6,0,12-5.4,12-12v-39 C82.011,24.388,76.611,18.988,70.011,18.988z"/><path fill="#1f212b" d="M70.011,82.988h-39c-7.18,0-13-5.82-13-13v-39c0-7.18,5.82-13,13-13h39c7.18,0,13,5.82,13,13v39 C83.011,77.168,77.19,82.988,70.011,82.988z M20.011,30.988v39c0,6.075,4.925,11,11,11h39c6.075,0,11-4.925,11-11v-39 c0-6.075-4.925-11-11-11h-39C24.935,19.988,20.011,24.913,20.011,30.988z"/><path fill="#1f212b" d="M67.173,77.988H33.848c-5.985,0-10.837-4.852-10.837-10.837V33.825 c0-5.985,4.852-10.837,10.837-10.837h33.663c0.276,0,0.5,0.224,0.5,0.5s-0.224,0.5-0.5,0.5H33.848 c-5.433,0-9.837,4.404-9.837,9.837V67.15c0,5.433,4.405,9.838,9.838,9.838h33.325c5.433,0,9.837-4.404,9.837-9.837V48.488 c0-0.276,0.224-0.5,0.5-0.5s0.5,0.224,0.5,0.5V67.15C78.011,73.136,73.158,77.988,67.173,77.988z M77.511,45.567 c-0.276,0-0.5-0.224-0.5-0.5v-4c0-0.276,0.224-0.5,0.5-0.5s0.5,0.224,0.5,0.5v4C78.011,45.344,77.787,45.567,77.511,45.567z M77.511,39.567c-0.276,0-0.5-0.224-0.5-0.5v-2c0-0.276,0.224-0.5,0.5-0.5s0.5,0.224,0.5,0.5v2 C78.011,39.344,77.787,39.567,77.511,39.567z"/><path fill="#fff" d="M64.5,60.5c0-6.89,0-28.975,0-28.975c0-1.242-1.119-2.183-2.343-1.97l-19,3.657 c-0.958,0.167-1.657,0.998-1.657,1.97c0,0,0,19.318,0,24.318c0,2-2.75,2.063-2.75,2.063c-0.216,0.024-0.43,0.037-0.648,0.083 c-3.002,0.631-5.034,3.093-4.54,5.499c0.495,2.406,3.329,3.845,6.331,3.213C42.843,69.738,44.5,67.5,44.5,65 c0-5.5,0-21.656,0-21.656c0-0.487,0.346-0.903,0.826-0.985c2.798-0.477,11.77-2.254,15.001-2.83 c0.613-0.109,1.173,0.362,1.173,0.985c0,0,0,11.986,0,14.986c0,2-2.013,2.013-2.013,2.013c-0.454,0.002-0.915,0.033-1.385,0.132 c-3.002,0.631-5.034,3.093-4.54,5.499c0.495,2.406,3.329,3.845,6.331,3.213C62.674,65.773,64.5,63.5,64.5,60.5z"/><path fill="none" stroke="#1f212b" stroke-linecap="round" stroke-linejoin="round" stroke-miterlimit="10" d="M64.5,60.5 c0-6.89,0-28.975,0-28.975c0-1.242-1.119-2.183-2.343-1.97l-19,3.657c-0.958,0.167-1.657,0.998-1.657,1.97c0,0,0,19.318,0,24.318 c0,2-2.75,2.063-2.75,2.063c-0.216,0.024-0.43,0.037-0.648,0.083c-3.002,0.631-5.034,3.093-4.54,5.499 c0.495,2.406,3.329,3.845,6.331,3.213C42.843,69.738,44.5,67.5,44.5,65c0-5.5,0-21.656,0-21.656c0-0.487,0.346-0.903,0.826-0.985 c2.798-0.477,11.77-2.254,15.001-2.83c0.613-0.109,1.173,0.362,1.173,0.985c0,0,0,11.986,0,14.986c0,2-2.013,2.013-2.013,2.013 c-0.454,0.002-0.915,0.033-1.385,0.132c-3.002,0.631-5.034,3.093-4.54,5.499c0.495,2.406,3.329,3.845,6.331,3.213 C62.674,65.773,64.5,63.5,64.5,60.5z"/></svg>